<svg width="21" height="21" viewBox="0 0 21 21" fill="none" xmlns="http://www.w3.org/2000/svg">
<g id="Layer_1" clip-path="url(#clip0_279_523)">
<path id="Vector" d="M13.2072 0.0797528L20.8521 5.17196C20.913 5.21223 20.9585 5.26935 20.982 5.33508C21.0054 5.4008 21.0057 5.47172 20.9827 5.53759C20.9597 5.60346 20.9147 5.66088 20.8541 5.70154C20.7935 5.74221 20.7204 5.76403 20.6455 5.76384H0.355147C0.261769 5.76324 0.172418 5.72862 0.106504 5.6675C0.0405893 5.60638 0.00343534 5.5237 0.00311279 5.43742V2.88135C0.00311279 2.79432 0.0405268 2.71086 0.107124 2.64933C0.173722 2.58779 0.264047 2.55322 0.35823 2.55322H12.6203V0.328125C12.6203 0.265316 12.6398 0.203837 12.6766 0.15099C12.7133 0.0981439 12.7657 0.0561504 12.8275 0.0299971C12.8893 0.00384388 12.9579 -0.00537009 13.0252 0.00344964C13.0925 0.0122694 13.1557 0.0387523 13.2072 0.0797528Z" fill="#75748F"/>
<path id="Vector_2" d="M7.79283 20.9202L0.147949 15.828C0.0870309 15.7878 0.0415441 15.7306 0.0180581 15.6649C-0.00542789 15.5992 -0.00569749 15.5283 0.0172886 15.4624C0.0402747 15.3965 0.0853266 15.3391 0.145937 15.2985C0.206547 15.2578 0.279579 15.236 0.354484 15.2362H20.6443C20.6909 15.2362 20.7372 15.2447 20.7803 15.2612C20.8234 15.2777 20.8626 15.3019 20.8956 15.3325C20.9286 15.363 20.9547 15.3992 20.9725 15.4391C20.9903 15.479 20.9994 15.5217 20.9994 15.5649V18.1192C20.9994 18.2062 20.962 18.2897 20.8954 18.3512C20.8288 18.4128 20.7384 18.4473 20.6443 18.4473H8.37976V20.6719C8.37972 20.7347 8.36017 20.7962 8.32343 20.849C8.2867 20.9019 8.23432 20.9438 8.17251 20.97C8.11071 20.9962 8.04208 21.0054 7.97478 20.9965C7.90748 20.9877 7.84433 20.9612 7.79283 20.9202Z" fill="#75748F"/>
<path id="Vector_3" fill-rule="evenodd" clip-rule="evenodd" d="M3.74353 7.03987V13.9618C3.74353 14.0489 3.78094 14.1323 3.84754 14.1938C3.91414 14.2554 4.00446 14.29 4.09865 14.29H16.9014C16.9955 14.29 17.0859 14.2554 17.1525 14.1938C17.2191 14.1323 17.2565 14.0489 17.2565 13.9618V7.03987C17.2565 6.95285 17.2191 6.86939 17.1525 6.80785C17.0859 6.74632 16.9955 6.71175 16.9014 6.71175H4.09865C4.00446 6.71175 3.91414 6.74632 3.84754 6.80785C3.78094 6.86939 3.74353 6.95285 3.74353 7.03987ZM14.0974 8.11938L14.3607 8.3575C14.3967 8.38541 14.4257 8.42027 14.4456 8.45964C14.4655 8.499 14.4759 8.54191 14.476 8.58536C14.476 9.07698 14.9476 9.03255 14.9488 9.03255C14.995 9.02879 15.0415 9.03433 15.0852 9.04878C15.1288 9.06324 15.1685 9.08627 15.2016 9.11629L15.4766 9.36409C15.5125 9.39211 15.5414 9.42699 15.5613 9.46633C15.5812 9.50567 15.5916 9.54853 15.5919 9.59195V11.4069C15.5919 11.4467 15.5834 11.4861 15.5666 11.5228C15.5499 11.5595 15.5253 11.5928 15.4945 11.6205L15.2201 11.8683C15.1866 11.9033 15.1446 11.9306 15.0976 11.9479C15.0506 11.9652 14.9999 11.9721 14.9494 11.968C14.9494 11.968 14.4766 11.9236 14.4766 12.4152C14.4767 12.4551 14.468 12.4946 14.4512 12.5313C14.4343 12.568 14.4096 12.6012 14.3786 12.6288L14.1159 12.8658C14.0856 12.8977 14.0482 12.9232 14.0063 12.9407C13.9644 12.9582 13.919 12.9672 13.873 12.9672H7.12824C7.04399 12.9674 6.963 12.9372 6.90259 12.8829L6.63934 12.6448C6.6033 12.6169 6.57431 12.582 6.55439 12.5426C6.53448 12.5033 6.52412 12.4604 6.52405 12.4169C6.52405 11.9253 6.05241 11.9697 6.05118 11.9697C6.00469 11.9728 5.95803 11.9666 5.91439 11.9514C5.87076 11.9363 5.83119 11.9126 5.7984 11.882L5.52343 11.6342C5.48752 11.6062 5.45862 11.5713 5.43871 11.532C5.41881 11.4926 5.40838 11.4498 5.40814 11.4063V9.59252C5.40807 9.5527 5.41666 9.51328 5.43339 9.47658C5.45012 9.43988 5.47466 9.40667 5.50555 9.3789L5.77991 9.1311C5.81378 9.09646 5.85595 9.06961 5.90305 9.05269C5.95015 9.03578 6.00087 9.02927 6.05118 9.03369C6.05118 9.03369 6.52405 9.07812 6.52405 8.5865C6.52398 8.54668 6.53256 8.50725 6.5493 8.47056C6.56603 8.43386 6.59057 8.40065 6.62146 8.37288L6.8841 8.1359C6.91445 8.104 6.95182 8.07846 6.99371 8.06097C7.0356 8.04349 7.08104 8.03446 7.12701 8.0345H13.8749C13.9578 8.03478 14.0375 8.06456 14.0974 8.11767V8.11938Z" fill="#75748F"/>
<path id="Vector_4" d="M6.0187 10.0766C5.90316 10.0766 5.79233 10.1186 5.71052 10.1933C5.6287 10.2681 5.58259 10.3696 5.58228 10.4754C5.58228 10.5815 5.62826 10.6832 5.7101 10.7582C5.79195 10.8332 5.90295 10.8753 6.0187 10.8753C6.13424 10.875 6.24495 10.8328 6.32654 10.7578C6.40813 10.6829 6.45395 10.5813 6.45395 10.4754C6.45395 10.3697 6.40809 10.2682 6.32647 10.1934C6.24484 10.1186 6.13414 10.0766 6.0187 10.0766Z" fill="#75748F"/>
<path id="Vector_5" d="M14.966 10.0766C14.8505 10.0766 14.7397 10.1186 14.6578 10.1933C14.576 10.2681 14.5299 10.3696 14.5296 10.4754C14.5296 10.5815 14.5756 10.6832 14.6574 10.7582C14.7393 10.8332 14.8503 10.8753 14.966 10.8753C15.0816 10.875 15.1923 10.8328 15.2739 10.7578C15.3555 10.6829 15.4013 10.5813 15.4013 10.4754C15.4013 10.3697 15.3554 10.2682 15.2738 10.1934C15.1922 10.1186 15.0815 10.0766 14.966 10.0766Z" fill="#75748F"/>
<path id="Union" fill-rule="evenodd" clip-rule="evenodd" d="M9.18112 8.86359C9.24924 8.86141 9.31693 8.875 9.37822 8.90313C9.43744 8.92866 9.48797 8.96907 9.52419 9.01987L9.96067 9.6815L10.7283 9.66282L10.7094 9.1294C10.7081 9.08811 10.7162 9.04706 10.7332 9.00899C10.7502 8.97092 10.7756 8.93672 10.8079 8.90862C10.8744 8.84647 10.9642 8.81099 11.0582 8.80971C11.1044 8.80731 11.1506 8.81354 11.1942 8.82803C11.2378 8.84252 11.2779 8.86502 11.3122 8.89415C11.3449 8.92122 11.3713 8.95423 11.39 8.99117C11.4086 9.02811 11.419 9.0682 11.4205 9.10899L11.4396 9.64551L11.9894 9.63213C12.0764 9.63001 12.1608 9.65649 12.2242 9.70574C12.2875 9.755 12.3245 9.823 12.3271 9.89478C12.3297 9.96655 12.2976 10.0362 12.2379 10.0885C12.1782 10.1407 12.0958 10.1713 12.0088 10.1734L11.4589 10.1868L11.4781 10.729L12.0014 10.7163C12.0884 10.7142 12.1728 10.7407 12.2362 10.7899C12.2995 10.8392 12.3365 10.9072 12.3391 10.9789C12.3417 11.0507 12.3096 11.1204 12.2499 11.1726C12.1902 11.2249 12.1077 11.2554 12.0208 11.2575L11.4974 11.2703L11.5205 11.921C11.5234 11.9642 11.5164 12.0074 11.5 12.0478C11.4836 12.0881 11.4581 12.1247 11.4253 12.155C11.3906 12.1874 11.3494 12.213 11.304 12.2303C11.2586 12.2475 11.2099 12.2562 11.1609 12.2557C11.0923 12.2575 11.0243 12.2433 10.9628 12.2144C10.9014 12.1856 10.8486 12.143 10.809 12.0903L10.4836 11.5933L10.2904 11.2997L9.59451 11.3166L9.61833 11.9863C9.61966 12.0274 9.61155 12.0683 9.59454 12.1061C9.57754 12.144 9.55204 12.178 9.51977 12.2057C9.45323 12.2688 9.36284 12.3049 9.26807 12.306C9.22201 12.3084 9.17591 12.302 9.1325 12.2872C9.08909 12.2725 9.04927 12.2497 9.01543 12.2202C8.98222 12.1938 8.95529 12.1611 8.93639 12.1244C8.91749 12.0876 8.90705 12.0475 8.90574 12.0067L8.88181 11.3339L8.3149 11.3477C8.22791 11.3498 8.14347 11.3234 8.08014 11.2741C8.01681 11.2249 7.97978 11.1569 7.97722 11.0851C7.97465 11.0133 8.00676 10.9436 8.06646 10.8914C8.12616 10.8391 8.20856 10.8086 8.29556 10.8065L8.86257 10.7927L8.84329 10.2504L8.30291 10.2636C8.21591 10.2657 8.13147 10.2392 8.06814 10.1899C8.00481 10.1407 7.96778 10.0727 7.96522 10.0009C7.96265 9.92914 7.99476 9.85946 8.05446 9.80721C8.11416 9.75496 8.19656 9.72442 8.28356 9.72231L8.82404 9.70915L8.80575 9.19469C8.80386 9.15171 8.81148 9.10884 8.82812 9.0688C8.84475 9.02875 8.87004 8.9924 8.90241 8.96199C8.93904 8.92842 8.98273 8.90233 9.0307 8.8854C9.07867 8.86846 9.12988 8.86104 9.18112 8.86359ZM10.7476 10.2041L10.3124 10.2147L10.6648 10.7488L10.7669 10.7463L10.7476 10.2041ZM9.55599 10.2331L9.5838 10.2324C9.6327 10.3056 9.67882 10.3764 9.72333 10.4447L9.72334 10.4447L9.72335 10.4447C9.78185 10.5345 9.83757 10.62 9.89313 10.7012L9.93769 10.7665L9.57527 10.7753L9.55599 10.2331Z" fill="#75748F"/>
</g>
<defs>
<clipPath id="clip0_279_523">
<rect width="21" height="21" fill="white"/>
</clipPath>
</defs>
</svg>
