<svg width="24" height="24" viewBox="0 0 24 24" fill="none" xmlns="http://www.w3.org/2000/svg">
<g id="ei:pencil">
<path id="Vector" d="M4.60791 19.392L5.80791 14.64L12.9599 7.48801L16.5119 11.04L9.35991 18.192L4.60791 19.392ZM6.67191 15.12L5.95191 18.048L8.87991 17.328L15.1679 11.04L12.9599 8.83201L6.67191 15.12Z" fill="black"/>
<path id="Vector_2" d="M8.54419 17.904C8.25619 16.704 7.29619 15.744 6.09619 15.456L6.33619 14.544C7.87219 14.928 9.07219 16.128 9.45619 17.664L8.54419 17.904Z" fill="black"/>
<path id="Vector_3" d="M14.0628 9.25776L14.7415 9.93647L8.49675 16.1861L7.81803 15.5093L14.0628 9.25776ZM5.27979 18.72L6.67178 18.384C6.52779 17.856 6.14379 17.472 5.61579 17.328L5.27979 18.72ZM16.7998 10.752L13.2478 7.19999L14.6878 5.75999L14.9278 5.80799C16.6558 6.04799 17.9998 7.39199 18.2398 9.11999L18.2878 9.35999L16.7998 10.752ZM14.5918 7.19999L16.7998 9.40799L17.2318 8.976C16.9918 7.872 16.1278 7.00799 15.0238 6.76799L14.5918 7.19999Z" fill="black"/>
</g>
</svg>
