<svg width="89" height="88" viewBox="0 0 89 88" fill="none" xmlns="http://www.w3.org/2000/svg">
<g id="fluent:error-circle-16-regular">
<path id="Vector" d="M44.5 11C48.8336 11 53.1248 11.8536 57.1286 13.512C61.1323 15.1704 64.7702 17.6011 67.8345 20.6655C70.8989 23.7298 73.3296 27.3677 74.988 31.3714C76.6464 35.3752 77.5 39.6664 77.5 44C77.5 48.3336 76.6464 52.6248 74.988 56.6286C73.3296 60.6323 70.8989 64.2702 67.8345 67.3345C64.7702 70.3989 61.1323 72.8296 57.1286 74.488C53.1248 76.1464 48.8336 77 44.5 77C35.7479 77 27.3542 73.5232 21.1655 67.3345C14.9768 61.1458 11.5 52.7521 11.5 44C11.5 35.2479 14.9768 26.8542 21.1655 20.6655C27.3542 14.4768 35.7479 11 44.5 11ZM44.5 16.5C37.2065 16.5 30.2118 19.3973 25.0546 24.5546C19.8973 29.7118 17 36.7065 17 44C17 51.2935 19.8973 58.2882 25.0546 63.4454C30.2118 68.6027 37.2065 71.5 44.5 71.5C51.7935 71.5 58.7882 68.6027 63.9454 63.4454C69.1027 58.2882 72 51.2935 72 44C72 36.7065 69.1027 29.7118 63.9454 24.5546C58.7882 19.3973 51.7935 16.5 44.5 16.5ZM44.5 55C45.594 55 46.6432 55.4346 47.4168 56.2082C48.1904 56.9818 48.625 58.031 48.625 59.125C48.625 60.219 48.1904 61.2682 47.4168 62.0418C46.6432 62.8154 45.594 63.25 44.5 63.25C43.406 63.25 42.3568 62.8154 41.5832 62.0418C40.8096 61.2682 40.375 60.219 40.375 59.125C40.375 58.031 40.8096 56.9818 41.5832 56.2082C42.3568 55.4346 43.406 55 44.5 55ZM44.5 24.75C45.1436 24.7498 45.767 24.9753 46.2614 25.3874C46.7559 25.7994 47.0901 26.3719 47.206 27.005L47.25 27.5V46.75C47.2513 47.4372 46.9952 48.1 46.5322 48.6078C46.0692 49.1156 45.4329 49.4317 44.7485 49.4938C44.0641 49.5559 43.3812 49.3595 42.8344 48.9433C42.2876 48.5271 41.9164 47.9212 41.794 47.245L41.75 46.75V27.5C41.75 26.7707 42.0397 26.0712 42.5555 25.5555C43.0712 25.0397 43.7707 24.75 44.5 24.75Z" fill="#FF9600" fill-opacity="0.6"/>
</g>
</svg>
