<svg width="21" height="22" viewBox="0 0 21 22" fill="none" xmlns="http://www.w3.org/2000/svg">
<g id="Frame 8375" clip-path="url(#clip0_100_864)">
<path id="Vector" d="M10.5009 21.7663C8.42396 21.7663 6.39365 21.1504 4.66674 19.9965C2.93984 18.8425 1.5939 17.2024 0.799165 15.2835C0.00442932 13.3646 -0.203418 11.2531 0.201911 9.21607C0.607241 7.17904 1.60754 5.30799 3.07631 3.83948C4.54507 2.37097 6.41632 1.37099 8.45342 0.966014C10.4905 0.561041 12.602 0.769274 14.5207 1.56435C16.4395 2.35942 18.0794 3.7056 19.233 5.43271C20.3866 7.15982 21.0022 9.19024 21.0019 11.2672C20.9984 14.051 19.8909 16.7198 17.9223 18.6881C15.9537 20.6563 13.2847 21.7634 10.5009 21.7663ZM10.5009 2.60568C8.78783 2.60568 7.11321 3.11366 5.68882 4.0654C4.26444 5.01715 3.15426 6.36989 2.49869 7.95258C1.84312 9.53528 1.67159 11.2769 2.0058 12.957C2.34001 14.6372 3.16494 16.1805 4.37628 17.3919C5.58762 18.6032 7.13097 19.4282 8.81115 19.7624C10.4913 20.0966 12.2329 19.925 13.8156 19.2695C15.3983 18.6139 16.751 17.5037 17.7028 16.0793C18.6545 14.6549 19.1625 12.9803 19.1625 11.2672C19.1601 8.97077 18.2467 6.76909 16.6229 5.14526C14.9991 3.52143 12.7974 2.60811 10.5009 2.60568Z" fill="#75748F"/>
<path id="Vector_2" d="M16.2207 3.47188L2.95599 17.8216L4.30668 19.0701L17.5714 4.72044L16.2207 3.47188Z" fill="#75748F"/>
</g>
<defs>
<clipPath id="clip0_100_864">
<rect width="21" height="21" fill="white" transform="translate(0 0.764465)"/>
</clipPath>
</defs>
</svg>
