<svg width="22" height="14" viewBox="0 0 22 14" fill="none" xmlns="http://www.w3.org/2000/svg">
<g id="Capa_1" clip-path="url(#clip0_100_807)">
<path id="Vector" d="M21.2769 12.0299V13.0521C21.2769 13.1466 21.2396 13.2372 21.173 13.3042C21.1065 13.3711 21.0162 13.4089 20.922 13.4092H0.940285C0.845802 13.4092 0.755187 13.3716 0.688377 13.3046C0.621568 13.2377 0.584036 13.1468 0.584036 13.0521V12.0299C0.584037 11.9915 0.576455 11.9534 0.561731 11.9179C0.547006 11.8824 0.525425 11.8501 0.498229 11.823C0.471034 11.7958 0.438762 11.7743 0.40326 11.7597C0.367759 11.7451 0.329726 11.7377 0.291353 11.7379C0.214081 11.7379 0.139974 11.7687 0.0853338 11.8234C0.0306941 11.8782 0 11.9525 0 12.0299V13.0521C0 13.1759 0.0243186 13.2985 0.0715723 13.4128C0.118826 13.5272 0.188088 13.6311 0.275401 13.7186C0.362715 13.8061 0.466371 13.8756 0.580451 13.9229C0.694532 13.9703 0.816805 13.9947 0.940285 13.9947H20.922C21.1711 13.9943 21.41 13.8949 21.586 13.7181C21.7621 13.5414 21.8609 13.3019 21.8609 13.0521V12.0299C21.8609 11.9571 21.8337 11.8869 21.7847 11.8331C21.7357 11.7793 21.6684 11.7458 21.5961 11.7392C21.5148 11.7944 21.4255 11.8365 21.3312 11.864C21.2962 11.9122 21.2772 11.9703 21.2769 12.0299Z" fill="#75748F"/>
<path id="Vector_2" d="M21.0611 0H1.07938C0.830113 0.000351186 0.59115 0.099766 0.414888 0.27645C0.238627 0.453134 0.139449 0.692668 0.139099 0.942536V10.9679C0.139099 11.0917 0.163422 11.2143 0.210675 11.3286C0.257929 11.443 0.327191 11.5469 0.414504 11.6344C0.501818 11.7219 0.605474 11.7914 0.719554 11.8387C0.833635 11.8861 0.955904 11.9105 1.07938 11.9105H21.0611C21.1508 11.9097 21.24 11.8963 21.326 11.8707C21.4202 11.8432 21.5096 11.8011 21.5908 11.7459C21.7172 11.6595 21.8207 11.5435 21.8922 11.4079C21.9638 11.2723 22.0012 11.1213 22.0014 10.9679V0.942536C22.001 0.692668 21.9018 0.453134 21.7256 0.27645C21.5493 0.099766 21.3104 0.000351186 21.0611 0ZM0.723135 10.9679V0.942536C0.723135 0.847827 0.760667 0.756997 0.827477 0.690027C0.894286 0.623057 0.984901 0.585434 1.07938 0.585434H21.0611C21.1553 0.585785 21.2456 0.623563 21.3121 0.690495C21.3787 0.757427 21.416 0.848056 21.416 0.942536V10.9679C21.416 11.0624 21.3787 11.1531 21.3121 11.22C21.2456 11.2869 21.1553 11.3247 21.0611 11.3251H1.07938C0.984901 11.3251 0.894286 11.2874 0.827477 11.2205C0.760667 11.1535 0.723135 11.0627 0.723135 10.9679Z" fill="#75748F"/>
<path id="Vector_3" d="M2.72944 8.08459C2.78751 8.07857 2.84586 8.07546 2.90425 8.0753C3.31605 8.07105 3.71275 8.2306 4.00741 8.519C4.30207 8.8074 4.47066 9.20112 4.47625 9.61389C4.47659 9.69124 4.5074 9.76533 4.56197 9.82002C4.61653 9.87472 4.69044 9.9056 4.7676 9.90595H17.3012C17.3785 9.90595 17.4526 9.87518 17.5072 9.82041C17.5619 9.76564 17.5925 9.69135 17.5925 9.61389C17.5981 9.20089 17.7669 8.80696 18.0619 8.51853C18.3568 8.23009 18.7538 8.07069 19.1659 8.0753C19.2041 8.07513 19.2419 8.06739 19.2771 8.05254C19.3123 8.03768 19.3442 8.016 19.371 7.98874C19.3979 7.96148 19.4191 7.92918 19.4334 7.89368C19.4477 7.85819 19.4549 7.82021 19.4546 7.78192V4.05159C19.4548 4.01319 19.4473 3.97514 19.4328 3.93962C19.4182 3.90411 19.3967 3.87185 19.3696 3.84469C19.3425 3.81754 19.3104 3.79603 19.2749 3.78141C19.2395 3.7668 19.2015 3.75937 19.1632 3.75954C18.7512 3.76415 18.3542 3.60475 18.0592 3.31632C17.7643 3.02788 17.5955 2.63396 17.5899 2.22095C17.5894 2.18014 17.5916 2.13934 17.5965 2.09882C17.6003 2.05821 17.5956 2.01724 17.5826 1.97859C17.5696 1.93994 17.5486 1.90446 17.521 1.87447C17.4937 1.84432 17.4604 1.82025 17.4232 1.80379C17.386 1.78733 17.3458 1.77884 17.3052 1.77889H4.55703C4.47964 1.77924 4.40553 1.8103 4.35093 1.86528C4.29633 1.92026 4.26567 1.99469 4.26568 2.07227C4.25974 2.48469 4.09095 2.87794 3.79629 3.16584C3.50163 3.45374 3.10513 3.61281 2.69368 3.6082C2.61606 3.6082 2.54161 3.63911 2.48672 3.69413C2.43183 3.74915 2.401 3.82378 2.401 3.90159V7.7952C2.40119 7.83634 2.41001 7.87699 2.4269 7.9145C2.44378 7.95201 2.46835 7.98554 2.499 8.01291C2.52988 8.04096 2.56651 8.06191 2.60631 8.0743C2.64611 8.08668 2.68814 8.09019 2.72944 8.08459ZM17.0138 2.36565C17.0507 2.85786 17.2561 3.32221 17.5951 3.68019C17.9341 4.03818 18.3861 4.26785 18.8745 4.33037V7.51642C18.4124 7.57616 17.9824 7.78525 17.6495 8.11199C17.3166 8.43873 17.099 8.86533 17.0297 9.32715H5.03909C4.96439 8.83007 4.71823 8.37497 4.34344 8.04099C3.96864 7.70701 3.48891 7.51528 2.98768 7.49916V4.18036C3.44968 4.12077 3.87967 3.9117 4.21238 3.58491C4.54509 3.25811 4.76234 2.83143 4.83117 2.36963L17.0138 2.36565Z" fill="#75748F"/>
<path id="Vector_4" d="M3.82733 5.84241C3.82768 6.08066 3.92226 6.30905 4.09032 6.47752C4.25839 6.64599 4.48623 6.74079 4.72391 6.74114C4.96159 6.74079 5.18944 6.64599 5.3575 6.47752C5.52557 6.30905 5.62014 6.08066 5.62049 5.84241C5.62014 5.60428 5.52553 5.37603 5.35742 5.20777C5.18932 5.03951 4.96147 4.94501 4.72391 4.94501C4.48635 4.94501 4.25851 5.03951 4.0904 5.20777C3.9223 5.37603 3.82768 5.60428 3.82733 5.84241ZM4.72391 5.52911C4.76495 5.52911 4.8056 5.53722 4.84352 5.55296C4.88144 5.56871 4.91589 5.59178 4.94492 5.62088C4.97394 5.64997 4.99696 5.6845 5.01267 5.72252C5.02837 5.76053 5.03646 5.80127 5.03646 5.84241C5.03646 5.9255 5.00353 6.00519 4.94492 6.06394C4.8863 6.1227 4.8068 6.1557 4.72391 6.1557C4.64102 6.1557 4.56152 6.1227 4.50291 6.06394C4.4443 6.00519 4.41137 5.9255 4.41137 5.84241C4.41084 5.80104 4.41849 5.75998 4.43388 5.7216C4.44927 5.68322 4.47209 5.64827 4.50103 5.61877C4.52996 5.58927 4.56444 5.56581 4.60247 5.54974C4.64049 5.53367 4.68132 5.5253 4.72259 5.52513L4.72391 5.52911Z" fill="#75748F"/>
<path id="Vector_5" d="M17.1397 6.74114C17.3773 6.74079 17.605 6.64594 17.7728 6.47744C17.9407 6.30893 18.035 6.08054 18.035 5.84241C18.035 5.6044 17.9407 5.37614 17.7728 5.20785C17.6049 5.03955 17.3772 4.94501 17.1397 4.94501C16.902 4.94501 16.6741 5.03947 16.5057 5.20769C16.3374 5.37591 16.2425 5.60416 16.2418 5.84241C16.2422 6.08089 16.3369 6.30948 16.5053 6.47799C16.6736 6.64649 16.9018 6.74114 17.1397 6.74114ZM17.1397 5.52911C17.2226 5.52911 17.3021 5.56212 17.3607 5.62088C17.4193 5.67963 17.4523 5.75932 17.4523 5.84241C17.4523 5.9255 17.4193 6.00519 17.3607 6.06394C17.3021 6.1227 17.2226 6.1557 17.1397 6.1557C17.0986 6.15588 17.0578 6.1479 17.0197 6.13224C16.9816 6.11657 16.947 6.09352 16.9179 6.06441C16.8887 6.0353 16.8656 6.00071 16.8498 5.96261C16.834 5.92451 16.8259 5.88366 16.8259 5.84241C16.8255 5.80087 16.8334 5.75967 16.849 5.72119C16.8646 5.68271 16.8877 5.64772 16.9168 5.61822C16.946 5.58872 16.9807 5.56531 17.019 5.54933C17.0573 5.53336 17.0983 5.52513 17.1397 5.52513V5.52911Z" fill="#75748F"/>
<path id="Union" fill-rule="evenodd" clip-rule="evenodd" d="M10.0718 2.9972C10.1813 2.99569 10.2894 3.0213 10.3867 3.07174C10.4807 3.11764 10.5603 3.18887 10.6164 3.27754L11.272 4.39887L12.5237 4.38588L12.5148 3.50493C12.5144 3.4338 12.5291 3.36336 12.5579 3.29837C12.5867 3.23337 12.6289 3.17532 12.6817 3.128C12.791 3.02315 12.9365 2.96499 13.0876 2.96587C13.1618 2.96326 13.2357 2.97549 13.3052 3.00187C13.3746 3.02825 13.4381 3.0683 13.492 3.11958C13.5434 3.16726 13.5846 3.22497 13.613 3.28919C13.6414 3.35341 13.6565 3.42277 13.6574 3.49306L13.6663 4.37401L14.442 4.36595C14.5778 4.36454 14.7086 4.41738 14.8056 4.51287C14.9026 4.60837 14.9579 4.73869 14.9593 4.87515C14.9607 5.01161 14.908 5.143 14.813 5.24048C14.7179 5.33797 14.5882 5.39357 14.4524 5.39498L13.6767 5.40304L13.6849 6.21571L14.4607 6.20766C14.5965 6.20624 14.7273 6.25914 14.8243 6.35463C14.9213 6.45012 14.9766 6.58039 14.978 6.71685C14.9793 6.85331 14.9267 6.98476 14.8316 7.08224C14.7366 7.17973 14.6069 7.23527 14.4711 7.23668L13.6952 7.24474L13.7063 8.33842C13.7092 8.41282 13.6962 8.48703 13.6683 8.55599C13.6403 8.62495 13.598 8.68705 13.5441 8.73821C13.4871 8.79282 13.4198 8.8355 13.3463 8.86376C13.2727 8.89202 13.1943 8.90534 13.1156 8.90286C13.0054 8.9037 12.8967 8.87706 12.7993 8.82537C12.7018 8.77368 12.6187 8.69854 12.5572 8.60664L12.0545 7.74013L11.7773 7.26466L10.6385 7.27649L10.6497 8.3885C10.6502 8.45932 10.6356 8.52941 10.6068 8.59405C10.578 8.6587 10.5357 8.71636 10.4828 8.76314C10.3734 8.86959 10.2269 8.92868 10.0747 8.92758C10.0006 8.9301 9.92688 8.91759 9.85777 8.89079C9.78866 8.86399 9.72563 8.82341 9.67248 8.77156C9.62021 8.72496 9.57827 8.66787 9.54939 8.60392C9.52051 8.53997 9.50534 8.47062 9.50485 8.40039L9.49364 7.28838L8.68588 7.29677C8.55007 7.29818 8.41929 7.24534 8.32228 7.14985C8.22528 7.05435 8.17 6.92403 8.16862 6.78757C8.16725 6.65111 8.21989 6.51972 8.31494 6.42224C8.41 6.32475 8.53969 6.26915 8.6755 6.26774L9.48326 6.25935L9.47506 5.44667L8.6672 5.45506C8.53139 5.45648 8.40061 5.40358 8.3036 5.30809C8.2066 5.2126 8.15132 5.08233 8.14994 4.94587C8.14856 4.80941 8.2012 4.67796 8.29626 4.58048C8.39132 4.48299 8.52101 4.42745 8.65682 4.42604L9.46469 4.41764L9.45599 3.55503C9.45468 3.48097 9.46861 3.4074 9.49691 3.33899C9.52521 3.27059 9.56725 3.20882 9.62043 3.15751C9.68057 3.10091 9.75174 3.05741 9.82943 3.02983C9.90712 3.00224 9.98963 2.99113 10.0718 2.9972ZM12.5341 5.4149L11.8702 5.4218L12.3425 6.22965L12.5423 6.22758L12.5341 5.4149ZM10.6199 5.43478L10.7032 5.43392C10.7644 5.53805 10.8228 5.63924 10.8795 5.73749L10.8795 5.73752C10.9699 5.89404 11.056 6.04309 11.1419 6.18464L11.1766 6.24176L10.6281 6.24746L10.6199 5.43478Z" fill="#75748F"/>
</g>
<defs>
<clipPath id="clip0_100_807">
<rect width="22" height="14" fill="white"/>
</clipPath>
</defs>
</svg>
