<svg width="22" height="22" viewBox="0 0 22 22" fill="none" xmlns="http://www.w3.org/2000/svg">
<path d="M19.9008 18.5992L16.5 15.2258C17.8201 13.5799 18.4594 11.4907 18.2864 9.38786C18.1134 7.28503 17.1414 5.32839 15.5701 3.92026C13.9988 2.51213 11.9477 1.75955 9.83852 1.81727C7.72937 1.87498 5.7225 2.7386 4.23055 4.23055C2.7386 5.7225 1.87498 7.72937 1.81727 9.83852C1.75955 11.9477 2.51213 13.9988 3.92026 15.5701C5.32839 17.1414 7.28503 18.1134 9.38786 18.2864C11.4907 18.4594 13.5799 17.8201 15.2258 16.5L18.5992 19.8733C18.6844 19.9593 18.7858 20.0275 18.8975 20.074C19.0092 20.1205 19.129 20.1445 19.25 20.1445C19.371 20.1445 19.4908 20.1205 19.6025 20.074C19.7142 20.0275 19.8156 19.9593 19.9008 19.8733C20.0661 19.7024 20.1584 19.474 20.1584 19.2363C20.1584 18.9985 20.0661 18.7701 19.9008 18.5992ZM10.0833 16.5C8.81424 16.5 7.57364 16.1237 6.51843 15.4186C5.46321 14.7135 4.64077 13.7114 4.15511 12.5389C3.66945 11.3664 3.54238 10.0762 3.78996 8.83151C4.03755 7.5868 4.64868 6.44346 5.54607 5.54607C6.44346 4.64868 7.5868 4.03755 8.83151 3.78996C10.0762 3.54238 11.3664 3.66945 12.5389 4.15511C13.7114 4.64077 14.7135 5.46321 15.4186 6.51843C16.1237 7.57364 16.5 8.81424 16.5 10.0833C16.5 11.7851 15.824 13.4172 14.6206 14.6206C13.4172 15.824 11.7851 16.5 10.0833 16.5Z" fill="#999999"/>
</svg>
