<svg width="24" height="20" viewBox="0 0 24 20" fill="none" xmlns="http://www.w3.org/2000/svg">
<g id="Capa_1" clip-path="url(#clip0_100_777)">
<path id="Vector" d="M19.939 5.30227C19.9393 5.198 19.9477 5.09391 19.9643 4.99097C19.0608 3.51333 17.6397 2.6219 15.8093 2.40055C14.8269 2.28738 13.8321 2.35347 12.8733 2.59562C12.7941 2.62069 12.7278 2.67571 12.6887 2.74894C12.6495 2.82217 12.6405 2.90782 12.6635 2.9876C12.6866 3.06738 12.74 3.13499 12.8122 3.17599C12.8844 3.217 12.9698 3.22816 13.0501 3.20709C13.0582 3.20709 13.2058 3.16363 13.4544 3.11714C14.647 2.89681 18.1562 2.56833 19.7106 5.85916L19.7692 5.98651C19.7722 5.99377 19.7756 6.00086 19.7793 6.00773C19.8263 6.08881 19.8793 6.16619 19.938 6.23918L19.939 5.30227Z" fill="#75748F" stroke="#75748F" stroke-width="0.690643" stroke-miterlimit="10"/>
<path id="Vector_2" d="M15.4343 16.4381C14.6905 16.515 14.0103 16.5625 13.3877 16.5847C13.2088 16.8111 13.0171 17.027 12.8136 17.2315C13.606 17.2245 14.4924 17.1739 15.4839 17.0718H20.2432C20.1194 16.8777 20.0311 16.6632 19.9825 16.4381H15.4647H15.4343Z" fill="#75748F" stroke="#75748F" stroke-width="0.690643" stroke-miterlimit="10"/>
<path id="Vector_3" d="M2.00724 5.68735C1.67995 5.68735 1.36606 5.55733 1.13463 5.3259C0.903196 5.09447 0.773185 4.78058 0.773185 4.45329C0.773185 4.12599 0.903196 3.81211 1.13463 3.58068C1.36606 3.34925 1.67995 3.21923 2.00724 3.21923H3.95081C3.84616 3.01614 3.76186 2.80319 3.69915 2.5835H2.00724C1.60639 2.58313 1.21605 2.71167 0.893846 2.95013C0.571639 3.18858 0.334662 3.52432 0.217869 3.90778C0.101076 4.29123 0.11066 4.70209 0.245234 5.07967C0.379808 5.45725 0.632239 5.78156 0.965232 6.00471C1.27319 5.79746 1.63604 5.68694 2.00724 5.68735Z" fill="#75748F" stroke="#75748F" stroke-width="0.690643" stroke-miterlimit="10"/>
<path id="Vector_4" d="M10.6841 3.86406H11.1702C11.1235 3.72193 11.0593 3.58614 10.9792 3.45978C10.8895 3.60066 10.7909 3.7357 10.6841 3.86406Z" fill="#75748F" stroke="#75748F" stroke-width="0.690643" stroke-miterlimit="10"/>
<path id="Vector_5" d="M1.0521 8.3374C0.904228 8.15659 0.810707 7.93753 0.782401 7.70568C0.754095 7.47383 0.792174 7.2387 0.892206 7.02763C0.992237 6.81656 1.15011 6.63821 1.34749 6.51331C1.54487 6.38842 1.77363 6.3221 2.0072 6.32207H2.7046C2.9747 6.09022 3.26113 5.87811 3.56167 5.68735H2.0072C1.62984 5.68641 1.26107 5.79991 0.949551 6.01289C0.638027 6.22587 0.398405 6.5283 0.262322 6.88028C0.126238 7.23226 0.100077 7.61723 0.187309 7.98437C0.274541 8.35152 0.471057 8.68359 0.750915 8.93674C0.841878 8.73157 0.942946 8.53145 1.0521 8.3374Z" fill="#75748F" stroke="#75748F" stroke-width="0.690643" stroke-miterlimit="10"/>
<path id="Vector_6" d="M0.137453 10.66C0.137665 10.7709 0.148159 10.8815 0.16879 10.9905C0.233332 10.4985 0.347459 10.0142 0.509407 9.54518C0.26753 9.86646 0.136939 10.2578 0.137453 10.66Z" fill="#75748F" stroke="#75748F" stroke-width="0.690643" stroke-miterlimit="10"/>
<path id="Vector_7" d="M20.2432 17.0688C20.4717 17.4325 20.8121 17.7121 21.2133 17.8654C21.6145 18.0187 22.0547 18.0374 22.4675 17.9186C22.8802 17.7998 23.2431 17.5501 23.5015 17.207C23.7599 16.8639 23.8998 16.4462 23.8999 16.0167V5.30329C23.8882 4.78579 23.6745 4.29341 23.3043 3.93155C22.9342 3.56968 22.4371 3.36707 21.9195 3.36707C21.4018 3.36707 20.9048 3.56968 20.5346 3.93155C20.1645 4.29341 19.9507 4.78579 19.939 5.30329V16.0167C19.9401 16.3888 20.0451 16.7532 20.2422 17.0688H20.2432ZM20.5758 5.30228C20.5708 5.12272 20.602 4.94399 20.6673 4.77666C20.7326 4.60933 20.8308 4.45678 20.956 4.32804C21.0813 4.19929 21.2311 4.09695 21.3966 4.02708C21.562 3.9572 21.7399 3.9212 21.9195 3.9212C22.0991 3.9212 22.2769 3.9572 22.4424 4.02708C22.6079 4.09695 22.7577 4.19929 22.8829 4.32804C23.0082 4.45678 23.1064 4.60933 23.1717 4.77666C23.237 4.94399 23.2681 5.12272 23.2632 5.30228V16.0157C23.2681 16.1952 23.237 16.3739 23.1717 16.5413C23.1064 16.7086 23.0082 16.8612 22.8829 16.9899C22.7577 17.1187 22.6079 17.221 22.4424 17.2909C22.2769 17.3607 22.0991 17.3967 21.9195 17.3967C21.7399 17.3967 21.562 17.3607 21.3966 17.2909C21.2311 17.221 21.0813 17.1187 20.956 16.9899C20.8308 16.8612 20.7326 16.7086 20.6673 16.5413C20.602 16.3739 20.5708 16.1952 20.5758 16.0157V5.30228Z" fill="#75748F" stroke="#75748F" stroke-width="0.690643" stroke-miterlimit="10"/>
<path id="Vector_8" d="M11.152 2.41976C11.084 2.41981 11.0177 2.3979 10.9631 2.3573C10.9085 2.3167 10.8684 2.25956 10.8488 2.19438C10.8444 2.2048 10.841 2.21563 10.8387 2.22672C10.835 2.24615 10.8303 2.26538 10.8246 2.28433C10.772 2.49253 10.5456 3.19396 9.80176 3.86405H10.6811C10.7879 3.73569 10.8865 3.60065 10.9762 3.45977C11.2055 3.11929 11.3706 2.73977 11.4633 2.33992C11.4721 2.29071 11.469 2.24011 11.4543 2.19235C11.4348 2.25758 11.395 2.31487 11.3406 2.35579C11.2862 2.39672 11.2201 2.41914 11.152 2.41976Z" fill="#75748F" stroke="#75748F" stroke-width="0.690643" stroke-miterlimit="10"/>
<path id="Vector_9" d="M3.95082 3.21924C4.11036 3.53389 4.31164 3.82558 4.54917 4.08642C4.67795 4.01218 4.824 3.97314 4.97265 3.97322H5.005C5.09001 3.94258 5.17715 3.91826 5.26574 3.90045C4.77796 3.4761 4.43339 2.91124 4.2793 2.28334C4.27425 2.25908 4.27123 2.2419 4.27022 2.23684C4.26679 2.21364 4.2607 2.19092 4.25203 2.16913C4.23807 2.23637 4.2026 2.29723 4.15099 2.34254C4.09938 2.38785 4.03443 2.41513 3.96595 2.42027C3.89747 2.4254 3.82918 2.40811 3.77139 2.37101C3.7136 2.33391 3.66945 2.27901 3.64562 2.21461C3.63953 2.25278 3.63953 2.29166 3.64562 2.32983C3.65935 2.41521 3.67857 2.49961 3.70321 2.5825C3.76456 2.80239 3.8475 3.01568 3.95082 3.21924Z" fill="#75748F" stroke="#75748F" stroke-width="0.690643" stroke-miterlimit="10"/>
<path id="Vector_10" d="M3.94273 2.41979C4.01505 2.41979 4.08519 2.39502 4.14146 2.3496C4.19774 2.30417 4.23676 2.24084 4.25201 2.17015C4.25786 2.14806 4.26057 2.12527 4.26007 2.10243C4.26783 1.87319 4.36435 1.65593 4.52926 1.4965C4.69416 1.33708 4.91457 1.24796 5.14394 1.24796C5.37331 1.24796 5.59369 1.33708 5.7586 1.4965C5.92351 1.65593 6.02003 1.87319 6.02778 2.10243C6.02809 1.76688 6.13972 1.44092 6.34515 1.17562C6.15236 0.923225 5.88516 0.737757 5.58128 0.645391C5.27741 0.553026 4.95219 0.558428 4.65155 0.660838C4.3509 0.763248 4.09002 0.957494 3.90571 1.21615C3.72141 1.47481 3.62298 1.78482 3.62434 2.10243C3.62489 2.14119 3.63244 2.17954 3.6466 2.21563C3.66939 2.27571 3.70992 2.32742 3.76282 2.36389C3.81572 2.40036 3.87847 2.41986 3.94273 2.41979Z" fill="#75748F" stroke="#75748F" stroke-width="0.690643" stroke-miterlimit="10"/>
<path id="Vector_11" d="M6.02777 2.10243C6.02822 2.16325 6.03228 2.22401 6.03991 2.28436C6.08404 2.65363 6.26237 2.9938 6.54097 3.24016C6.81957 3.48652 7.179 3.62188 7.5509 3.62049C7.59253 3.62063 7.63378 3.61255 7.67227 3.59671C7.71077 3.58087 7.74576 3.55758 7.77524 3.5282C7.80473 3.49881 7.82813 3.46389 7.84409 3.42544C7.86005 3.38699 7.86825 3.34577 7.86825 3.30414C7.86865 3.26231 7.86075 3.22081 7.84495 3.18207C7.82916 3.14333 7.80579 3.10811 7.77626 3.07848C7.74672 3.04885 7.71158 3.0254 7.67289 3.00948C7.6342 2.99356 7.59273 2.98551 7.5509 2.98578C7.37619 2.98578 7.2054 2.93397 7.06013 2.83691C6.91487 2.73984 6.80165 2.60188 6.73479 2.44047C6.66793 2.27906 6.65044 2.10145 6.68453 1.93009C6.71861 1.75874 6.80273 1.60134 6.92627 1.4778C7.04981 1.35426 7.20721 1.27014 7.37857 1.23605C7.54992 1.20197 7.72754 1.21946 7.88895 1.28632C8.05036 1.35318 8.18832 1.4664 8.28538 1.61167C8.38244 1.75693 8.43425 1.92772 8.43425 2.10243C8.43484 1.76676 8.54681 1.44079 8.7526 1.17562C8.55981 0.923225 8.29261 0.737757 7.98873 0.645391C7.68486 0.553026 7.35966 0.558428 7.05902 0.660838C6.75838 0.763248 6.49747 0.957494 6.31316 1.21615C6.12886 1.47481 6.03045 1.78482 6.03182 2.10243H6.02777Z" fill="#75748F" stroke="#75748F" stroke-width="0.690643" stroke-miterlimit="10"/>
<path id="Vector_12" d="M8.43024 2.10242C8.43002 2.17012 8.45145 2.23612 8.49141 2.29077C8.53137 2.34542 8.58776 2.38586 8.65234 2.40619C8.71692 2.42651 8.7863 2.42564 8.85036 2.40372C8.91441 2.3818 8.96977 2.33998 9.00835 2.28435C9.04583 2.23109 9.06595 2.16755 9.06597 2.10242C9.06597 1.86788 9.15914 1.64294 9.32499 1.47709C9.49084 1.31124 9.71578 1.21806 9.95033 1.21806C10.1849 1.21806 10.4098 1.31124 10.5757 1.47709C10.7415 1.64294 10.8347 1.86788 10.8347 2.10242C10.8351 2.13366 10.8402 2.16467 10.8498 2.1944C10.8693 2.25972 10.9093 2.31702 10.9639 2.35777C11.0186 2.39851 11.0849 2.42052 11.153 2.42052C11.2212 2.42052 11.2875 2.39851 11.3422 2.35777C11.3968 2.31702 11.4368 2.25972 11.4563 2.1944C11.4653 2.16454 11.4704 2.13361 11.4714 2.10242C11.4714 1.69927 11.3113 1.31263 11.0262 1.02756C10.7411 0.742486 10.3545 0.582336 9.95134 0.582336C9.54819 0.582336 9.16156 0.742486 8.87649 1.02756C8.59142 1.31263 8.43125 1.69927 8.43125 2.10242H8.43024Z" fill="#75748F" stroke="#75748F" stroke-width="0.690643" stroke-miterlimit="10"/>
<path id="Vector_13" d="M7.55093 19.4166C8.52976 19.4174 9.49904 19.2245 10.403 18.8489C11.3069 18.4734 12.1276 17.9226 12.8177 17.2285C13.0212 17.024 13.2129 16.808 13.3917 16.5816C13.5922 16.3277 13.7765 16.0613 13.9436 15.7842C14.634 14.6321 14.998 13.314 14.9967 11.9708C14.9968 11.3478 14.919 10.7271 14.7653 10.1233C14.4972 10.0497 14.2408 9.93911 14.0032 9.79482C14.4116 11.0023 14.473 12.3002 14.1803 13.5408C13.8877 14.7814 13.2528 15.9151 12.3478 16.8127C11.4428 17.7104 10.3041 18.3361 9.06112 18.6187C7.81816 18.9013 6.52082 18.8294 5.31669 18.4112C4.11255 17.993 3.04994 17.2453 2.24968 16.2532C1.44942 15.261 0.943649 14.0642 0.789872 12.7988C0.636095 11.5334 0.840482 10.2503 1.37981 9.0953C1.91913 7.94033 2.77174 6.95988 3.84067 6.26546C3.78821 6.09313 3.76164 5.91398 3.76183 5.73384C3.76178 5.67577 3.76483 5.61774 3.77093 5.56C3.70221 5.60144 3.63247 5.64389 3.56879 5.68735C3.26826 5.8781 2.98183 6.09022 2.71172 6.32206C2.04782 6.89256 1.48859 7.57457 1.05923 8.33739C0.950071 8.53144 0.849001 8.73157 0.756017 8.93674C0.663033 9.14191 0.586207 9.34102 0.514447 9.54316C0.248961 10.3244 0.112416 11.1437 0.110168 11.9688C0.112038 13.9423 0.896358 15.8345 2.29116 17.2307C3.68596 18.6268 5.57744 19.4129 7.55093 19.4166Z" fill="#75748F" stroke="#75748F" stroke-width="0.690643" stroke-miterlimit="10"/>
<path id="Vector_14" d="M4.15594 4.58569C4.37453 4.30453 4.66919 4.09196 5.00494 3.97321H4.9726C4.78859 3.97342 4.60959 4.03321 4.46239 4.14361C4.31518 4.25402 4.20768 4.4091 4.15594 4.58569Z" fill="#75748F" stroke="#75748F" stroke-width="0.690643" stroke-miterlimit="10"/>
<path id="Vector_15" d="M10.6841 3.86408H5.63059C5.16549 3.86614 4.71771 4.04074 4.37396 4.35405C4.03021 4.66737 3.81496 5.0971 3.76991 5.56002C3.7638 5.61777 3.76076 5.6758 3.7608 5.73387C3.76062 5.914 3.78719 6.09316 3.83964 6.26549C3.95447 6.65153 4.19075 6.99024 4.5134 7.23132C4.83604 7.47239 5.22783 7.60297 5.63059 7.60365H12.7055C12.7419 8.03926 12.9005 8.81144 13.5191 9.42291C13.6634 9.56539 13.8238 9.69055 13.9971 9.79585C14.2347 9.94015 14.4912 10.0507 14.7592 10.1243C15.166 10.2361 15.5865 10.2902 16.0084 10.285C16.1782 10.285 16.3551 10.278 16.537 10.2638C16.621 10.2571 16.699 10.2173 16.7537 10.1531C16.8083 10.089 16.8353 10.0057 16.8286 9.92169C16.8219 9.83765 16.7821 9.75972 16.7179 9.70504C16.6538 9.65035 16.5705 9.6234 16.4865 9.6301L16.3258 9.6402C15.2726 9.69781 14.4792 9.47546 13.9698 8.97516C13.2806 8.30002 13.3301 7.31661 13.3321 7.30751C13.3346 7.26402 13.3283 7.22047 13.3135 7.17949C13.2987 7.1385 13.2758 7.10091 13.2462 7.06899C13.2166 7.03698 13.1806 7.01147 13.1406 6.99407C13.1006 6.97667 13.0574 6.96777 13.0137 6.96792H5.63059C5.3033 6.96792 4.98941 6.8379 4.75798 6.60647C4.52655 6.37504 4.39654 6.06116 4.39654 5.73387C4.39654 5.40657 4.52655 5.09268 4.75798 4.86125C4.98941 4.62982 5.3033 4.4998 5.63059 4.4998H13.0188C13.0769 4.49928 13.1337 4.48323 13.1835 4.45331C13.243 4.41748 13.2891 4.36313 13.3148 4.29858C13.3404 4.23404 13.3442 4.16287 13.3255 4.09598C13.3068 4.02909 13.2666 3.97018 13.2112 3.92829C13.1558 3.8864 13.0882 3.86385 13.0188 3.86408H10.6841Z" fill="#75748F" stroke="#75748F" stroke-width="0.690643" stroke-miterlimit="10"/>
<path id="Union" fill-rule="evenodd" clip-rule="evenodd" d="M6.60223 9.01783C6.70218 9.01645 6.80094 9.03984 6.88977 9.0859C6.97567 9.12781 7.04829 9.19286 7.09953 9.27383L7.69827 10.2978L8.84127 10.2859L8.83316 9.48148C8.8328 9.41652 8.8462 9.3522 8.87249 9.29285C8.89877 9.23349 8.93732 9.18049 8.98559 9.13727C9.08537 9.04152 9.21825 8.98841 9.35618 8.98922C9.42393 8.98683 9.49149 8.998 9.55489 9.02209C9.6183 9.04618 9.6763 9.08275 9.72553 9.12958C9.77245 9.17312 9.81003 9.22582 9.836 9.28447C9.86196 9.34311 9.87577 9.40645 9.87655 9.47064L9.88466 10.2751L10.593 10.2677C10.717 10.2665 10.8365 10.3147 10.925 10.4019C11.0136 10.4891 11.0641 10.6081 11.0654 10.7327C11.0666 10.8573 11.0185 10.9773 10.9317 11.0663C10.8449 11.1554 10.7265 11.2061 10.6025 11.2074L9.89413 11.2148L9.90162 11.9569L10.6101 11.9496C10.7341 11.9483 10.8535 11.9966 10.9421 12.0838C11.0307 12.171 11.0812 12.2899 11.0824 12.4145C11.0837 12.5392 11.0356 12.6592 10.9488 12.7482C10.862 12.8372 10.7436 12.888 10.6195 12.8892L9.91109 12.8966L9.92116 13.8953C9.92384 13.9633 9.91201 14.031 9.88647 14.094C9.86094 14.157 9.82228 14.2137 9.7731 14.2604C9.72104 14.3103 9.65961 14.3493 9.59243 14.3751C9.52524 14.4009 9.45363 14.413 9.38175 14.4108C9.28113 14.4115 9.18189 14.3872 9.09291 14.34C9.00392 14.2928 8.92798 14.2242 8.87184 14.1403L8.41277 13.349L8.15969 12.9148L7.11974 12.9256L7.12998 13.9411C7.13044 14.0057 7.11707 14.0697 7.09076 14.1288C7.06446 14.1878 7.02584 14.2405 6.97753 14.2832C6.87769 14.3804 6.74385 14.4343 6.60487 14.4333C6.53726 14.4356 6.46989 14.4242 6.40679 14.3997C6.34368 14.3753 6.28612 14.3382 6.23758 14.2909C6.18985 14.2483 6.15155 14.1962 6.12518 14.1378C6.09881 14.0794 6.08496 14.0161 6.08451 13.9519L6.07427 12.9365L5.3366 12.9441C5.21258 12.9454 5.09316 12.8972 5.00457 12.8099C4.91599 12.7227 4.86551 12.6037 4.86425 12.4791C4.863 12.3545 4.91107 12.2345 4.99787 12.1455C5.08468 12.0565 5.20311 12.0057 5.32712 12.0044L6.06479 11.9968L6.05731 11.2546L5.31954 11.2623C5.19552 11.2636 5.07609 11.2153 4.98751 11.1281C4.89893 11.0409 4.84845 10.9219 4.84719 10.7973C4.84593 10.6727 4.894 10.5527 4.98081 10.4636C5.06761 10.3746 5.18604 10.3239 5.31006 10.3226L6.04783 10.3149L6.03989 9.52723C6.03869 9.45959 6.05142 9.39242 6.07726 9.32995C6.1031 9.26748 6.14149 9.21107 6.19005 9.16422C6.24497 9.11253 6.30997 9.07281 6.38091 9.04762C6.45185 9.02243 6.5272 9.01229 6.60223 9.01783ZM8.85074 11.2256L8.24446 11.2319L8.67581 11.9696L8.85823 11.9677L8.85074 11.2256ZM7.10278 11.2438L7.17882 11.243C7.23468 11.3381 7.28802 11.4305 7.33982 11.5202L7.33984 11.5202C7.42236 11.6632 7.50095 11.7993 7.57947 11.9285L7.61109 11.9807L7.11026 11.9859L7.10278 11.2438Z" fill="#75748F"/>
</g>
<defs>
<clipPath id="clip0_100_777">
<rect width="24" height="19.0355" fill="white" transform="translate(0 0.482269)"/>
</clipPath>
</defs>
</svg>
