<svg width="25" height="25" viewBox="0 0 25 25" fill="none" xmlns="http://www.w3.org/2000/svg">
<g id="uil:search">
<path id="Vector" d="M2.38541 21.1354L6.24999 17.3021C4.74989 15.4317 4.02343 13.0576 4.21998 10.668C4.41654 8.27845 5.52117 6.05499 7.30674 4.45485C9.09232 2.8547 11.4231 1.9995 13.8199 2.06508C16.2166 2.13066 18.4972 3.11205 20.1926 4.80745C21.8879 6.50284 22.8693 8.78338 22.9349 11.1801C23.0005 13.5769 22.1453 15.9077 20.5452 17.6933C18.945 19.4788 16.7216 20.5835 14.332 20.78C11.9424 20.9766 9.56832 20.2501 7.69791 18.75L3.86458 22.5833C3.76774 22.681 3.65253 22.7585 3.52559 22.8114C3.39866 22.8642 3.26251 22.8915 3.12499 22.8915C2.98748 22.8915 2.85133 22.8642 2.72439 22.8114C2.59746 22.7585 2.48225 22.681 2.38541 22.5833C2.19766 22.3891 2.09271 22.1295 2.09271 21.8594C2.09271 21.5892 2.19766 21.3297 2.38541 21.1354ZM13.5417 18.75C14.9838 18.75 16.3936 18.3224 17.5927 17.5211C18.7918 16.7199 19.7264 15.5811 20.2783 14.2487C20.8302 12.9164 20.9746 11.4503 20.6932 10.0358C20.4119 8.62136 19.7174 7.32211 18.6976 6.30235C17.6779 5.2826 16.3786 4.58813 14.9642 4.30678C13.5497 4.02543 12.0836 4.16983 10.7513 4.72172C9.41888 5.27361 8.28008 6.2082 7.47886 7.40731C6.67764 8.60642 6.24999 10.0162 6.24999 11.4583C6.24999 13.3922 7.01822 15.2469 8.38567 16.6143C9.75313 17.9818 11.6078 18.75 13.5417 18.75Z" fill="white"/>
</g>
</svg>
